<?xml version="1.0" encoding="utf-8"?>
<!-- Generator: Adobe Illustrator 16.0.4, SVG Export Plug-In . SVG Version: 6.00 Build 0)  -->
<!DOCTYPE svg PUBLIC "-//W3C//DTD SVG 1.1//EN" "http://www.w3.org/Graphics/SVG/1.1/DTD/svg11.dtd">
<svg version="1.1" id="Ebene_1" xmlns="http://www.w3.org/2000/svg" xmlns:xlink="http://www.w3.org/1999/xlink" x="0px" y="0px"
	 width="150px" height="200px" viewBox="0 0 150 200" enable-background="new 0 0 150 200" xml:space="preserve">
<polygon display="none" fill="#B1B2B3" points="102.729,194.444 102.729,5.445 89.849,5.445 45.608,21.685 48.688,35.405 
	87.329,20.005 87.329,194.444 "/>
<polygon display="none" fill="#AC1834" points="103.502,194.444 103.502,5.445 90.622,5.445 46.382,21.685 49.462,35.405 
	88.103,20.005 88.103,194.444 "/>
<path display="none" fill="#B1B2B3" d="M127.688,195.444v-13.72c-38.08,0-74.201,0.28-88.48,0.84v-0.279l33.04-38.641
	c35.28-41.16,47.319-62.72,47.319-90.16c0-28.28-18.479-49.28-50.959-49.28c-17.36,0-31.36,4.2-44.52,10.92l2.24,13.44
	c11.48-7,26.32-12.04,38.92-12.04c26.6,0,38.64,17.36,38.64,38.64c0,24.36-8.96,42.84-39.76,79.24l-42,49.28v11.76H127.688z"/>
<path display="none" fill="#AC1834" d="M127.461,195.444v-13.72c-38.079,0-74.2,0.28-88.479,0.84v-0.279l33.04-38.641
	c35.28-41.16,47.319-62.72,47.319-90.16c0-28.28-18.479-49.28-50.959-49.28c-17.36,0-31.36,4.2-44.521,10.92l2.24,13.44
	c11.479-7,26.319-12.04,38.92-12.04c26.6,0,38.64,17.36,38.64,38.64c0,24.36-8.96,42.84-39.76,79.24l-42,49.28v11.76H127.461z"/>
<path display="none" fill="#B1B2B3" d="M121.509,139.564c0-25.199-16.24-43.4-37.801-45.92v-0.56
	c20.44-7.56,33.32-24.64,33.32-47.04c0-23.24-14.56-42.84-49.56-42.84c-13.721,0-26.32,3.08-37.801,7.84l1.4,13.44
	c10.36-5.6,21.84-8.96,34.44-8.96c21.84,0,35.84,11.48,35.84,32.48c0,28.28-20.721,42.56-65.521,41.44v12.32
	c46.2-4.76,69.72,11.479,69.72,38.64c0,23.801-19.319,42.841-49.279,42.841c-10.36,0-19.32-1.12-26.32-3.641l-1.68,14.28
	c7,1.68,14.84,2.52,26.319,2.52C93.229,196.404,121.509,171.765,121.509,139.564"/>
<path display="none" fill="#AC1834" d="M121.282,139.564c0-25.199-16.24-43.4-37.801-45.92v-0.56
	c20.44-7.56,33.32-24.64,33.32-47.04c0-23.24-14.56-42.84-49.56-42.84c-13.721,0-26.32,3.08-37.8,7.84l1.399,13.44
	c10.36-5.6,21.84-8.96,34.44-8.96c21.84,0,35.84,11.48,35.84,32.48c0,28.28-20.72,42.56-65.521,41.44v12.32
	c46.2-4.76,69.721,11.479,69.721,38.64c0,23.801-19.32,42.841-49.28,42.841c-10.36,0-19.32-1.12-26.32-3.641l-1.68,14.28
	c7,1.68,14.84,2.52,26.32,2.52C93.002,196.404,121.282,171.765,121.282,139.564"/>
<path display="none" fill="#B1B2B3" d="M93.707,132.761c-12.319,0-52.64,0-73.36,0.84L93.427,19.08h0.28V132.761z M143.267,146.48
	v-13.72h-34.72V4.24H88.388L4.667,135.28l0.84,11.2h88.2v46.76h14.84v-46.76H143.267z"/>
<path fill="#AC1834" d="M93.48,132.761c-12.319,0-52.64,0-73.36,0.84L93.2,19.08h0.28V132.761z M143.04,146.48v-13.72h-34.72V4.24
	H88.161L4.44,135.28l0.84,11.2h88.2v46.76h14.84v-46.76H143.04z"/>
<path display="none" fill="#B1B2B3" d="M119.868,131.48c0-32.2-24.08-53.48-70.84-53.48V17.801h66.64V3.24h-80.92v88.48h11.2
	c38.36,0,58.52,15.12,58.52,42.56c0,27.72-22.119,46.76-57.4,46.76c-4.2,0-11.2-0.84-16.52-2.239l-1.68,14.56
	c4.76,0.561,11.76,1.12,16.24,1.12C88.788,194.48,119.868,168.721,119.868,131.48"/>
<path display="none" fill="#AC1834" d="M119.642,131.48c0-32.2-24.08-53.48-70.84-53.48V17.801h66.64V3.24h-80.92v88.48h11.2
	c38.359,0,58.52,15.12,58.52,42.56c0,27.72-22.119,46.76-57.399,46.76c-4.2,0-11.2-0.84-16.521-2.239l-1.68,14.56
	c4.76,0.561,11.76,1.12,16.24,1.12C88.562,194.48,119.642,168.721,119.642,131.48"/>
<path display="none" fill="#B1B2B3" d="M119.807,133.04c0,29.681-17.359,50.4-47.319,50.4c-26.32,0-43.12-22.68-43.12-48.72
	c0-26.601,18.199-46.76,45.64-46.76C103.847,87.961,119.807,107.561,119.807,133.04 M134.927,129.961
	c0-30.24-22.96-54.32-57.68-54.32c-23.521,0-41.16,10.64-50.4,28v-0.84c1.12-5.04,1.96-10.36,2.521-13.721
	c7-46.479,29.68-73.92,73.92-73.92c6.439,0,10.359,0.28,14.56,0.84V2.561C115.606,2.28,110.287,2,105.807,2
	c-50.96,0-93.24,31.36-93.24,117.601c0,47.88,21,75.88,59.08,75.88C110.007,195.48,134.927,168.32,134.927,129.961"/>
<path display="none" fill="#AC1834" d="M120.06,133.04c0,29.681-17.359,50.4-47.319,50.4c-26.32,0-43.12-22.68-43.12-48.72
	c0-26.601,18.2-46.76,45.64-46.76C104.1,87.961,120.06,107.561,120.06,133.04 M135.18,129.961c0-30.24-22.96-54.32-57.68-54.32
	c-23.52,0-41.16,10.64-50.4,28v-0.84c1.12-5.04,1.96-10.36,2.521-13.721c7-46.479,29.68-73.92,73.92-73.92
	c6.44,0,10.36,0.28,14.56,0.84V2.561C115.86,2.28,110.54,2,106.06,2C55.1,2,12.82,33.36,12.82,119.601c0,47.88,21,75.88,59.08,75.88
	C110.26,195.48,135.18,168.32,135.18,129.961"/>
</svg>
